# xmcd CD database file
# 
# 
# Track frame offsets:
#       150
#       30428
#       52978
#       69448
#       85788
#       108738
#       124864
#       149744
#       170651
#       183270
#       199678
#       222016
#       240882
#       271839
# 
# Disc length: 4008 seconds
# 
# Revision: 0
# Processed by: cddbd v1.5.1PL0 Copyright (c) Steve Scherf et al.
# 
# Submitted via: MBCDINFO 1.10.8 on 2004-07-02
# 
DISCID=c10fa60e
DTITLE=Shelomith - Live
DYEAR=1900
DGENRE=
TTITLE0=Holy, holy
TTITLE1=God is good
TTITLE2=I've been born again
TTITLE3=Like a mighty river
TTITLE4=I got to the rock
TTITLE5=Can't nobody
TTITLE6=When you need a friend
TTITLE7=It's playing time
TTITLE8=Ain't no mountain
TTITLE9=Amen
TTITLE10=Sweet taste
TTITLE11=Send it on down
TTITLE12=Oh happy day
TTITLE13=Sacrifice of praise
EXTD=
EXTT0=
EXTT1=
EXTT2=
EXTT3=
EXTT4=
EXTT5=
EXTT6=
EXTT7=
EXTT8=
EXTT9=
EXTT10=
EXTT11=
EXTT12=
EXTT13=
PLAYORDER=
